{
    "asset" : {
        "generator" : "Khronos glTF Blender I/O v3.2.40",
        "version" : "2.0"
    },
    "scene" : 0,
    "scenes" : [
        {
            "name" : "Scene",
            "nodes" : [
                0,
                1
            ]
        }
    ],
    "nodes" : [
        {
            "mesh" : 0,
            "name" : "Sphere",
            "scale" : [
                1.8546053171157837,
                1.8546053171157837,
                1.8546053171157837
            ],
            "translation" : [
                2.259439468383789,
                -1.1275099515914917,
                1.7596293687820435
            ]
        },
        {
            "mesh" : 1,
            "name" : "Circle",
            "scale" : [
                1.768174409866333,
                1.768174409866333,
                1.768174409866333
            ],
            "translation" : [
                2.247863292694092,
                -0.40970492362976074,
                1.7735236883163452
            ]
        }
    ],
    "materials" : [
        {
            "doubleSided" : true,
            "name" : "Material.005",
            "pbrMetallicRoughness" : {
                "baseColorFactor" : [
                    0.800000011920929,
                    0.800000011920929,
                    0.800000011920929,
                    1
                ],
                "metallicFactor" : 0,
                "roughnessFactor" : 0.5
            }
        },
        {
            "doubleSided" : true,
            "name" : "Material.004",
            "pbrMetallicRoughness" : {
                "baseColorFactor" : [
                    0.800000011920929,
                    0.800000011920929,
                    0.800000011920929,
                    1
                ],
                "metallicFactor" : 0,
                "roughnessFactor" : 0.5
            }
        }
    ],
    "meshes" : [
        {
            "name" : "Mesh",
            "primitives" : [
                {
                    "attributes" : {
                        "POSITION" : 0,
                        "NORMAL" : 1
                    },
                    "indices" : 2,
                    "material" : 0
                }
            ]
        },
        {
            "name" : "Mesh",
            "primitives" : [
                {
                    "attributes" : {
                        "POSITION" : 3,
                        "NORMAL" : 4
                    },
                    "indices" : 5,
                    "material" : 1
                }
            ]
        }
    ],
    "accessors" : [
        {
            "bufferView" : 0,
            "componentType" : 5126,
            "count" : 2242,
            "max" : [
                0.4789036214351654,
                3.1041452884674072,
                0.47890350222587585
            ],
            "min" : [
                -0.4789036810398102,
                2.1371123790740967,
                -0.47890397906303406
            ],
            "type" : "VEC3"
        },
        {
            "bufferView" : 1,
            "componentType" : 5126,
            "count" : 2242,
            "type" : "VEC3"
        },
        {
            "bufferView" : 2,
            "componentType" : 5123,
            "count" : 13440,
            "type" : "SCALAR"
        },
        {
            "bufferView" : 3,
            "componentType" : 5126,
            "count" : 900,
            "max" : [
                0.8700265884399414,
                1.9701101779937744,
                0.8700267672538757
            ],
            "min" : [
                -0.8700265884399414,
                0.02933773584663868,
                -0.8700265884399414
            ],
            "type" : "VEC3"
        },
        {
            "bufferView" : 4,
            "componentType" : 5126,
            "count" : 900,
            "type" : "VEC3"
        },
        {
            "bufferView" : 5,
            "componentType" : 5123,
            "count" : 5184,
            "type" : "SCALAR"
        }
    ],
    "bufferViews" : [
        {
            "buffer" : 0,
            "byteLength" : 26904,
            "byteOffset" : 0
        },
        {
            "buffer" : 0,
            "byteLength" : 26904,
            "byteOffset" : 26904
        },
        {
            "buffer" : 0,
            "byteLength" : 26880,
            "byteOffset" : 53808
        },
        {
            "buffer" : 0,
            "byteLength" : 10800,
            "byteOffset" : 80688
        },
        {
            "buffer" : 0,
            "byteLength" : 10800,
            "byteOffset" : 91488
        },
        {
            "buffer" : 0,
            "byteLength" : 10368,
            "byteOffset" : 102288
        }
    ],
    "buffers" : [
        {
            "byteLength" : 112656,
            "uri" : "data:application/octet-stream;base64,"
        }
    ]
}
