{
    "asset" : {
        "generator" : "Khronos glTF Blender I/O v3.2.40",
        "version" : "2.0"
    },
    "scene" : 0,
    "scenes" : [
        {
            "name" : "Scene",
            "nodes" : [
                0,
                1,
                2,
                3,
                4,
                5,
                6
            ]
        }
    ],
    "nodes" : [
        {
            "mesh" : 0,
            "name" : "Cube.003",
            "rotation" : [
                -0.021062485873699188,
                0,
                0,
                0.9997782111167908
            ],
            "scale" : [
                0.22891518473625183,
                0.18552708625793457,
                0.48052915930747986
            ],
            "translation" : [
                0.008086469024419785,
                5.021411895751953,
                3.697770118713379
            ]
        },
        {
            "mesh" : 1,
            "name" : "Cube.001",
            "rotation" : [
                0.05264870077371597,
                0,
                0,
                0.9986131191253662
            ],
            "scale" : [
                0.6714718341827393,
                1,
                1
            ],
            "translation" : [
                0.004246708005666733,
                1.6977598667144775,
                5.382848739624023
            ]
        },
        {
            "mesh" : 2,
            "name" : "Plane.002",
            "rotation" : [
                1,
                0,
                0,
                0
            ],
            "scale" : [
                -0.14853456616401672,
                -1,
                -0.06571226567029953
            ],
            "translation" : [
                0.004246710799634457,
                7.914492607116699,
                4.89411735534668
            ]
        },
        {
            "mesh" : 3,
            "name" : "Plane",
            "rotation" : [
                -0.7071067094802856,
                0,
                0,
                0.7071068286895752
            ],
            "scale" : [
                0.5530244708061218,
                1,
                0.1674165278673172
            ],
            "translation" : [
                0.0032292604446411133,
                5.374197483062744,
                0.8195794224739075
            ]
        },
        {
            "mesh" : 4,
            "name" : "Plane.003",
            "scale" : [
                0.3876066207885742,
                1,
                0.6955353617668152
            ],
            "translation" : [
                0.015808790922164917,
                7.976855278015137,
                -0.14542150497436523
            ]
        },
        {
            "mesh" : 5,
            "name" : "Plane.001",
            "scale" : [
                0.49263477325439453,
                1,
                1
            ],
            "translation" : [
                0.018496891483664513,
                4.43524694442749,
                0.25232934951782227
            ]
        },
        {
            "mesh" : 6,
            "name" : "Cube",
            "scale" : [
                0.5649407505989075,
                1,
                1
            ],
            "translation" : [
                0.007372915744781494,
                3.039421796798706,
                3.2933709621429443
            ]
        }
    ],
    "materials" : [
        {
            "doubleSided" : true,
            "name" : "GunPart5",
            "pbrMetallicRoughness" : {
                "baseColorFactor" : [
                    0.800000011920929,
                    0.800000011920929,
                    0.800000011920929,
                    1
                ],
                "metallicFactor" : 0,
                "roughnessFactor" : 0.5
            }
        },
        {
            "doubleSided" : true,
            "name" : "GunPart4",
            "pbrMetallicRoughness" : {
                "baseColorFactor" : [
                    0.800000011920929,
                    0.800000011920929,
                    0.800000011920929,
                    1
                ],
                "metallicFactor" : 0,
                "roughnessFactor" : 0.5
            }
        },
        {
            "doubleSided" : true,
            "name" : "GunPart3.001",
            "pbrMetallicRoughness" : {
                "baseColorFactor" : [
                    0.800000011920929,
                    0.800000011920929,
                    0.800000011920929,
                    1
                ],
                "metallicFactor" : 0,
                "roughnessFactor" : 0.5
            }
        },
        {
            "doubleSided" : true,
            "name" : "GunTrigger",
            "pbrMetallicRoughness" : {
                "baseColorFactor" : [
                    0.800000011920929,
                    0.800000011920929,
                    0.800000011920929,
                    1
                ],
                "metallicFactor" : 0,
                "roughnessFactor" : 0.5
            }
        },
        {
            "doubleSided" : true,
            "name" : "GunPart3",
            "pbrMetallicRoughness" : {
                "baseColorFactor" : [
                    0.800000011920929,
                    0.800000011920929,
                    0.800000011920929,
                    1
                ],
                "metallicFactor" : 0,
                "roughnessFactor" : 0.5
            }
        },
        {
            "doubleSided" : true,
            "name" : "GunPart2",
            "pbrMetallicRoughness" : {
                "baseColorFactor" : [
                    0.800000011920929,
                    0.800000011920929,
                    0.800000011920929,
                    1
                ],
                "metallicFactor" : 0,
                "roughnessFactor" : 0.5
            }
        },
        {
            "doubleSided" : true,
            "name" : "Material.001",
            "pbrMetallicRoughness" : {
                "baseColorFactor" : [
                    0.800000011920929,
                    0.800000011920929,
                    0.800000011920929,
                    1
                ],
                "metallicFactor" : 0,
                "roughnessFactor" : 0.5
            }
        }
    ],
    "meshes" : [
        {
            "name" : "Cube.003",
            "primitives" : [
                {
                    "attributes" : {
                        "POSITION" : 0,
                        "NORMAL" : 1,
                        "TEXCOORD_0" : 2
                    },
                    "indices" : 3,
                    "material" : 0
                }
            ]
        },
        {
            "name" : "Cube",
            "primitives" : [
                {
                    "attributes" : {
                        "POSITION" : 4,
                        "NORMAL" : 5,
                        "TEXCOORD_0" : 6
                    },
                    "indices" : 7,
                    "material" : 1
                }
            ]
        },
        {
            "name" : "Plane.004",
            "primitives" : [
                {
                    "attributes" : {
                        "POSITION" : 8,
                        "NORMAL" : 9,
                        "TEXCOORD_0" : 10
                    },
                    "indices" : 11,
                    "material" : 2
                }
            ]
        },
        {
            "name" : "Plane",
            "primitives" : [
                {
                    "attributes" : {
                        "POSITION" : 12,
                        "NORMAL" : 13,
                        "TEXCOORD_0" : 14
                    },
                    "indices" : 15,
                    "material" : 3
                }
            ]
        },
        {
            "name" : "Plane.003",
            "primitives" : [
                {
                    "attributes" : {
                        "POSITION" : 16,
                        "NORMAL" : 17,
                        "TEXCOORD_0" : 18
                    },
                    "indices" : 19,
                    "material" : 4
                }
            ]
        },
        {
            "name" : "Plane.001",
            "primitives" : [
                {
                    "attributes" : {
                        "POSITION" : 20,
                        "NORMAL" : 21,
                        "TEXCOORD_0" : 22
                    },
                    "indices" : 23,
                    "material" : 5
                }
            ]
        },
        {
            "name" : "Cube.001",
            "primitives" : [
                {
                    "attributes" : {
                        "POSITION" : 24,
                        "NORMAL" : 25,
                        "TEXCOORD_0" : 26
                    },
                    "indices" : 27,
                    "material" : 6
                }
            ]
        }
    ],
    "accessors" : [
        {
            "bufferView" : 0,
            "componentType" : 5126,
            "count" : 66,
            "max" : [
                0.9069421291351318,
                1.0055599212646484,
                1.15027916431427
            ],
            "min" : [
                -0.9069421291351318,
                -1.0196031332015991,
                -1.33359956741333
            ],
            "type" : "VEC3"
        },
        {
            "bufferView" : 1,
            "componentType" : 5126,
            "count" : 66,
            "type" : "VEC3"
        },
        {
            "bufferView" : 2,
            "componentType" : 5126,
            "count" : 66,
            "type" : "VEC2"
        },
        {
            "bufferView" : 3,
            "componentType" : 5123,
            "count" : 384,
            "type" : "SCALAR"
        },
        {
            "bufferView" : 4,
            "componentType" : 5126,
            "count" : 185,
            "max" : [
                0.5198811292648315,
                3.4223978519439697,
                0.7102051973342896
            ],
            "min" : [
                -0.519881010055542,
                -1.5389114618301392,
                -2.7346136569976807
            ],
            "type" : "VEC3"
        },
        {
            "bufferView" : 5,
            "componentType" : 5126,
            "count" : 185,
            "type" : "VEC3"
        },
        {
            "bufferView" : 6,
            "componentType" : 5126,
            "count" : 185,
            "type" : "VEC2"
        },
        {
            "bufferView" : 7,
            "componentType" : 5123,
            "count" : 324,
            "type" : "SCALAR"
        },
        {
            "bufferView" : 8,
            "componentType" : 5126,
            "count" : 48,
            "max" : [
                1.0000001192092896,
                0.15831711888313293,
                11.325345993041992
            ],
            "min" : [
                -1.0000001192092896,
                -0.53252112865448,
                -3.7233824729919434
            ],
            "type" : "VEC3"
        },
        {
            "bufferView" : 9,
            "componentType" : 5126,
            "count" : 48,
            "type" : "VEC3"
        },
        {
            "bufferView" : 10,
            "componentType" : 5126,
            "count" : 48,
            "type" : "VEC2"
        },
        {
            "bufferView" : 11,
            "componentType" : 5123,
            "count" : 276,
            "type" : "SCALAR"
        },
        {
            "bufferView" : 12,
            "componentType" : 5126,
            "count" : 60,
            "max" : [
                0.32844844460487366,
                0.3239491581916809,
                3.9153850078582764
            ],
            "min" : [
                -0.32844844460487366,
                -1.0221407413482666,
                -4.419413089752197
            ],
            "type" : "VEC3"
        },
        {
            "bufferView" : 13,
            "componentType" : 5126,
            "count" : 60,
            "type" : "VEC3"
        },
        {
            "bufferView" : 14,
            "componentType" : 5126,
            "count" : 60,
            "type" : "VEC2"
        },
        {
            "bufferView" : 15,
            "componentType" : 5123,
            "count" : 348,
            "type" : "SCALAR"
        },
        {
            "bufferView" : 16,
            "componentType" : 5126,
            "count" : 198,
            "max" : [
                1.0161999464035034,
                0.29311469197273254,
                2.4020464420318604
            ],
            "min" : [
                -1.0161999464035034,
                -0.45382046699523926,
                -9.111122131347656
            ],
            "type" : "VEC3"
        },
        {
            "bufferView" : 17,
            "componentType" : 5126,
            "count" : 198,
            "type" : "VEC3"
        },
        {
            "bufferView" : 18,
            "componentType" : 5126,
            "count" : 198,
            "type" : "VEC2"
        },
        {
            "bufferView" : 19,
            "componentType" : 5123,
            "count" : 1152,
            "type" : "SCALAR"
        },
        {
            "bufferView" : 20,
            "componentType" : 5126,
            "count" : 551,
            "max" : [
                1.0011135339736938,
                4.157151699066162,
                4.707423210144043
            ],
            "min" : [
                -1.0000611543655396,
                1.740264892578125,
                -6.599430084228516
            ],
            "type" : "VEC3"
        },
        {
            "bufferView" : 21,
            "componentType" : 5126,
            "count" : 551,
            "type" : "VEC3"
        },
        {
            "bufferView" : 22,
            "componentType" : 5126,
            "count" : 551,
            "type" : "VEC2"
        },
        {
            "bufferView" : 23,
            "componentType" : 5123,
            "count" : 3204,
            "type" : "SCALAR"
        },
        {
            "bufferView" : 24,
            "componentType" : 5126,
            "count" : 440,
            "max" : [
                1.216732144355774,
                4.050929546356201,
                3.2468481063842773
            ],
            "min" : [
                -1.216732144355774,
                -2.6481430530548096,
                -7.231166362762451
            ],
            "type" : "VEC3"
        },
        {
            "bufferView" : 25,
            "componentType" : 5126,
            "count" : 440,
            "type" : "VEC3"
        },
        {
            "bufferView" : 26,
            "componentType" : 5126,
            "count" : 440,
            "type" : "VEC2"
        },
        {
            "bufferView" : 27,
            "componentType" : 5123,
            "count" : 2538,
            "type" : "SCALAR"
        }
    ],
    "bufferViews" : [
        {
            "buffer" : 0,
            "byteLength" : 792,
            "byteOffset" : 0
        },
        {
            "buffer" : 0,
            "byteLength" : 792,
            "byteOffset" : 792
        },
        {
            "buffer" : 0,
            "byteLength" : 528,
            "byteOffset" : 1584
        },
        {
            "buffer" : 0,
            "byteLength" : 768,
            "byteOffset" : 2112
        },
        {
            "buffer" : 0,
            "byteLength" : 2220,
            "byteOffset" : 2880
        },
        {
            "buffer" : 0,
            "byteLength" : 2220,
            "byteOffset" : 5100
        },
        {
            "buffer" : 0,
            "byteLength" : 1480,
            "byteOffset" : 7320
        },
        {
            "buffer" : 0,
            "byteLength" : 648,
            "byteOffset" : 8800
        },
        {
            "buffer" : 0,
            "byteLength" : 576,
            "byteOffset" : 9448
        },
        {
            "buffer" : 0,
            "byteLength" : 576,
            "byteOffset" : 10024
        },
        {
            "buffer" : 0,
            "byteLength" : 384,
            "byteOffset" : 10600
        },
        {
            "buffer" : 0,
            "byteLength" : 552,
            "byteOffset" : 10984
        },
        {
            "buffer" : 0,
            "byteLength" : 720,
            "byteOffset" : 11536
        },
        {
            "buffer" : 0,
            "byteLength" : 720,
            "byteOffset" : 12256
        },
        {
            "buffer" : 0,
            "byteLength" : 480,
            "byteOffset" : 12976
        },
        {
            "buffer" : 0,
            "byteLength" : 696,
            "byteOffset" : 13456
        },
        {
            "buffer" : 0,
            "byteLength" : 2376,
            "byteOffset" : 14152
        },
        {
            "buffer" : 0,
            "byteLength" : 2376,
            "byteOffset" : 16528
        },
        {
            "buffer" : 0,
            "byteLength" : 1584,
            "byteOffset" : 18904
        },
        {
            "buffer" : 0,
            "byteLength" : 2304,
            "byteOffset" : 20488
        },
        {
            "buffer" : 0,
            "byteLength" : 6612,
            "byteOffset" : 22792
        },
        {
            "buffer" : 0,
            "byteLength" : 6612,
            "byteOffset" : 29404
        },
        {
            "buffer" : 0,
            "byteLength" : 4408,
            "byteOffset" : 36016
        },
        {
            "buffer" : 0,
            "byteLength" : 6408,
            "byteOffset" : 40424
        },
        {
            "buffer" : 0,
            "byteLength" : 5280,
            "byteOffset" : 46832
        },
        {
            "buffer" : 0,
            "byteLength" : 5280,
            "byteOffset" : 52112
        },
        {
            "buffer" : 0,
            "byteLength" : 3520,
            "byteOffset" : 57392
        },
        {
            "buffer" : 0,
            "byteLength" : 5076,
            "byteOffset" : 60912
        }
    ],
    "buffers" : [
        {
            "byteLength" : 65988,
            "uri" : "data:application/octet-stream;base64,"
        }
    ]
}
