{
    "asset" : {
        "generator" : "Khronos glTF Blender I/O v3.2.40",
        "version" : "2.0"
    },
    "scene" : 0,
    "scenes" : [
        {
            "name" : "Scene",
            "nodes" : [
                0,
                1,
                2,
                3,
                4,
                5,
                6,
                7,
                8,
                9
            ]
        }
    ],
    "nodes" : [
        {
            "mesh" : 0,
            "name" : "Tube",
            "rotation" : [
                0,
                -0.7240227460861206,
                0.6897761225700378,
                6.329608481792093e-08
            ],
            "scale" : [
                -0.11320320516824722,
                -1.2027907371520996,
                -0.11320320516824722
            ],
            "translation" : [
                0.012757979333400726,
                -0.01753641664981842,
                0.8898811936378479
            ]
        },
        {
            "mesh" : 1,
            "name" : "Suzanne",
            "translation" : [
                0.018125534057617188,
                0,
                -0.015247344970703125
            ]
        },
        {
            "mesh" : 2,
            "name" : "Sphere.009",
            "rotation" : [
                0,
                -0.9993897676467896,
                0,
                0.03493055701255798
            ],
            "scale" : [
                -0.11133336275815964,
                -0.11133336275815964,
                -0.11133336275815964
            ],
            "translation" : [
                0.12547637522220612,
                0.6413770318031311,
                0.9030847549438477
            ]
        },
        {
            "mesh" : 3,
            "name" : "Sphere.008",
            "rotation" : [
                0,
                -0.9993897676467896,
                0,
                0.03493055701255798
            ],
            "scale" : [
                -0.11133336275815964,
                -0.11133336275815964,
                -0.11133336275815964
            ],
            "translation" : [
                -0.06948825716972351,
                0.6414772868156433,
                0.9199694991111755
            ]
        },
        {
            "mesh" : 4,
            "name" : "Sphere.007",
            "rotation" : [
                0,
                -0.9993897676467896,
                0,
                0.03493055701255798
            ],
            "scale" : [
                -0.11133336275815964,
                -0.11133336275815964,
                -0.11133336275815964
            ],
            "translation" : [
                0.06898359954357147,
                0.6354003548622131,
                0.937481701374054
            ]
        },
        {
            "mesh" : 5,
            "name" : "Sphere.006",
            "rotation" : [
                0,
                -0.9993897676467896,
                0,
                0.03493055701255798
            ],
            "scale" : [
                -0.11133336275815964,
                -0.11133336275815964,
                -0.11133336275815964
            ],
            "translation" : [
                -0.006605403497815132,
                0.6366270780563354,
                0.9580445289611816
            ]
        },
        {
            "mesh" : 6,
            "name" : "Sphere.005",
            "scale" : [
                -0.2476302832365036,
                -0.2476302832365036,
                -0.2476302832365036
            ],
            "translation" : [
                0.13364414870738983,
                0.6540051102638245,
                0.6614705324172974
            ]
        },
        {
            "mesh" : 7,
            "name" : "Sphere.003",
            "scale" : [
                -0.2476302832365036,
                -0.2476302832365036,
                -0.2476302832365036
            ],
            "translation" : [
                0.04563666507601738,
                0.6540051102638245,
                0.6828270554542542
            ]
        },
        {
            "mesh" : 8,
            "name" : "Sphere.002",
            "scale" : [
                -0.2476302832365036,
                -0.2476302832365036,
                -0.2476302832365036
            ],
            "translation" : [
                -0.012774191796779633,
                0.6540051102638245,
                0.6828270554542542
            ]
        },
        {
            "mesh" : 9,
            "name" : "Sphere",
            "scale" : [
                -0.2476302832365036,
                -0.2476302832365036,
                -0.2476302832365036
            ],
            "translation" : [
                -0.08944715559482574,
                0.6540051102638245,
                0.6611054539680481
            ]
        }
    ],
    "materials" : [
        {
            "doubleSided" : true,
            "name" : "Material.001",
            "pbrMetallicRoughness" : {
                "baseColorFactor" : [
                    0.800000011920929,
                    0.800000011920929,
                    0.800000011920929,
                    1
                ],
                "metallicFactor" : 0,
                "roughnessFactor" : 0.5
            }
        },
        {
            "doubleSided" : true,
            "name" : "Material.002",
            "pbrMetallicRoughness" : {
                "baseColorFactor" : [
                    0.8976722359657288,
                    0.9065189957618713,
                    0.7649709582328796,
                    1
                ],
                "metallicFactor" : 0,
                "roughnessFactor" : 0.5
            }
        }
    ],
    "meshes" : [
        {
            "name" : "Mesh",
            "primitives" : [
                {
                    "attributes" : {
                        "POSITION" : 0,
                        "NORMAL" : 1
                    },
                    "indices" : 2,
                    "material" : 0
                }
            ]
        },
        {
            "name" : "Suzanne",
            "primitives" : [
                {
                    "attributes" : {
                        "POSITION" : 3,
                        "NORMAL" : 4
                    },
                    "indices" : 5,
                    "material" : 0
                }
            ]
        },
        {
            "name" : "Sphere.009",
            "primitives" : [
                {
                    "attributes" : {
                        "POSITION" : 6,
                        "NORMAL" : 7
                    },
                    "indices" : 8,
                    "material" : 1
                }
            ]
        },
        {
            "name" : "Sphere.008",
            "primitives" : [
                {
                    "attributes" : {
                        "POSITION" : 9,
                        "NORMAL" : 10
                    },
                    "indices" : 11,
                    "material" : 1
                }
            ]
        },
        {
            "name" : "Sphere.007",
            "primitives" : [
                {
                    "attributes" : {
                        "POSITION" : 12,
                        "NORMAL" : 13
                    },
                    "indices" : 14,
                    "material" : 1
                }
            ]
        },
        {
            "name" : "Sphere.006",
            "primitives" : [
                {
                    "attributes" : {
                        "POSITION" : 15,
                        "NORMAL" : 16
                    },
                    "indices" : 17,
                    "material" : 1
                }
            ]
        },
        {
            "name" : "Sphere.005",
            "primitives" : [
                {
                    "attributes" : {
                        "POSITION" : 18,
                        "NORMAL" : 19
                    },
                    "indices" : 20,
                    "material" : 1
                }
            ]
        },
        {
            "name" : "Sphere.003",
            "primitives" : [
                {
                    "attributes" : {
                        "POSITION" : 21,
                        "NORMAL" : 22
                    },
                    "indices" : 23,
                    "material" : 1
                }
            ]
        },
        {
            "name" : "Sphere.002",
            "primitives" : [
                {
                    "attributes" : {
                        "POSITION" : 24,
                        "NORMAL" : 25
                    },
                    "indices" : 26,
                    "material" : 1
                }
            ]
        },
        {
            "name" : "Sphere",
            "primitives" : [
                {
                    "attributes" : {
                        "POSITION" : 27,
                        "NORMAL" : 28
                    },
                    "indices" : 29,
                    "material" : 1
                }
            ]
        }
    ],
    "accessors" : [
        {
            "bufferView" : 0,
            "componentType" : 5126,
            "count" : 1728,
            "max" : [
                1.213376522064209,
                0.6130194067955017,
                2.4750783443450928
            ],
            "min" : [
                -1.4300085306167603,
                -0.6536775231361389,
                -0.9935952425003052
            ],
            "type" : "VEC3"
        },
        {
            "bufferView" : 1,
            "componentType" : 5126,
            "count" : 1728,
            "type" : "VEC3"
        },
        {
            "bufferView" : 2,
            "componentType" : 5123,
            "count" : 9984,
            "type" : "SCALAR"
        },
        {
            "bufferView" : 3,
            "componentType" : 5126,
            "count" : 31658,
            "max" : [
                1.249335527420044,
                0.9312442541122437,
                1.090977668762207
            ],
            "min" : [
                -1.249335527420044,
                -0.7602893114089966,
                -0.9358747005462646
            ],
            "type" : "VEC3"
        },
        {
            "bufferView" : 4,
            "componentType" : 5126,
            "count" : 31658,
            "type" : "VEC3"
        },
        {
            "bufferView" : 5,
            "componentType" : 5123,
            "count" : 188928,
            "type" : "SCALAR"
        },
        {
            "bufferView" : 6,
            "componentType" : 5126,
            "count" : 4032,
            "max" : [
                0.20106655359268188,
                0.23616242408752441,
                0.06776634603738785
            ],
            "min" : [
                -0.20757603645324707,
                -0.2807309925556183,
                -0.7302954792976379
            ],
            "type" : "VEC3"
        },
        {
            "bufferView" : 7,
            "componentType" : 5126,
            "count" : 4032,
            "type" : "VEC3"
        },
        {
            "bufferView" : 8,
            "componentType" : 5123,
            "count" : 5952,
            "type" : "SCALAR"
        },
        {
            "bufferView" : 9,
            "componentType" : 5126,
            "count" : 4032,
            "max" : [
                0.20069143176078796,
                0.23616242408752441,
                0.06776634603738785
            ],
            "min" : [
                -0.20757603645324707,
                -0.2807479798793793,
                -0.8948744535446167
            ],
            "type" : "VEC3"
        },
        {
            "bufferView" : 10,
            "componentType" : 5126,
            "count" : 4032,
            "type" : "VEC3"
        },
        {
            "bufferView" : 11,
            "componentType" : 5123,
            "count" : 5952,
            "type" : "SCALAR"
        },
        {
            "bufferView" : 12,
            "componentType" : 5126,
            "count" : 4032,
            "max" : [
                0.20069143176078796,
                0.23616242408752441,
                0.06776634603738785
            ],
            "min" : [
                -0.20757603645324707,
                -0.2807479798793793,
                -0.7496868371963501
            ],
            "type" : "VEC3"
        },
        {
            "bufferView" : 13,
            "componentType" : 5126,
            "count" : 4032,
            "type" : "VEC3"
        },
        {
            "bufferView" : 14,
            "componentType" : 5123,
            "count" : 5952,
            "type" : "SCALAR"
        },
        {
            "bufferView" : 15,
            "componentType" : 5126,
            "count" : 4032,
            "max" : [
                0.20069143176078796,
                0.23616242408752441,
                0.06776634603738785
            ],
            "min" : [
                -0.20757603645324707,
                -0.2807479798793793,
                -0.9448713064193726
            ],
            "type" : "VEC3"
        },
        {
            "bufferView" : 16,
            "componentType" : 5126,
            "count" : 4032,
            "type" : "VEC3"
        },
        {
            "bufferView" : 17,
            "componentType" : 5123,
            "count" : 5952,
            "type" : "SCALAR"
        },
        {
            "bufferView" : 18,
            "componentType" : 5126,
            "count" : 994,
            "max" : [
                0.23616230487823486,
                0.23616242408752441,
                0.17968875169754028
            ],
            "min" : [
                -0.23616242408752441,
                -0.27933505177497864,
                -0.6281461715698242
            ],
            "type" : "VEC3"
        },
        {
            "bufferView" : 19,
            "componentType" : 5126,
            "count" : 994,
            "type" : "VEC3"
        },
        {
            "bufferView" : 20,
            "componentType" : 5123,
            "count" : 5952,
            "type" : "SCALAR"
        },
        {
            "bufferView" : 21,
            "componentType" : 5126,
            "count" : 4032,
            "max" : [
                0.23616230487823486,
                0.23616242408752441,
                0.17968875169754028
            ],
            "min" : [
                -0.23616242408752441,
                -0.210231214761734,
                -0.6281461715698242
            ],
            "type" : "VEC3"
        },
        {
            "bufferView" : 22,
            "componentType" : 5126,
            "count" : 4032,
            "type" : "VEC3"
        },
        {
            "bufferView" : 23,
            "componentType" : 5123,
            "count" : 5952,
            "type" : "SCALAR"
        },
        {
            "bufferView" : 24,
            "componentType" : 5126,
            "count" : 4032,
            "max" : [
                0.23616230487823486,
                0.23616242408752441,
                0.17968875169754028
            ],
            "min" : [
                -0.23616242408752441,
                -0.21849629282951355,
                -0.6281461715698242
            ],
            "type" : "VEC3"
        },
        {
            "bufferView" : 25,
            "componentType" : 5126,
            "count" : 4032,
            "type" : "VEC3"
        },
        {
            "bufferView" : 26,
            "componentType" : 5123,
            "count" : 5952,
            "type" : "SCALAR"
        },
        {
            "bufferView" : 27,
            "componentType" : 5126,
            "count" : 4032,
            "max" : [
                0.23616230487823486,
                0.23616242408752441,
                0.17968875169754028
            ],
            "min" : [
                -0.23616242408752441,
                -0.1884848177433014,
                -0.6089814305305481
            ],
            "type" : "VEC3"
        },
        {
            "bufferView" : 28,
            "componentType" : 5126,
            "count" : 4032,
            "type" : "VEC3"
        },
        {
            "bufferView" : 29,
            "componentType" : 5123,
            "count" : 5952,
            "type" : "SCALAR"
        }
    ],
    "bufferViews" : [
        {
            "buffer" : 0,
            "byteLength" : 20736,
            "byteOffset" : 0
        },
        {
            "buffer" : 0,
            "byteLength" : 20736,
            "byteOffset" : 20736
        },
        {
            "buffer" : 0,
            "byteLength" : 19968,
            "byteOffset" : 41472
        },
        {
            "buffer" : 0,
            "byteLength" : 379896,
            "byteOffset" : 61440
        },
        {
            "buffer" : 0,
            "byteLength" : 379896,
            "byteOffset" : 441336
        },
        {
            "buffer" : 0,
            "byteLength" : 377856,
            "byteOffset" : 821232
        },
        {
            "buffer" : 0,
            "byteLength" : 48384,
            "byteOffset" : 1199088
        },
        {
            "buffer" : 0,
            "byteLength" : 48384,
            "byteOffset" : 1247472
        },
        {
            "buffer" : 0,
            "byteLength" : 11904,
            "byteOffset" : 1295856
        },
        {
            "buffer" : 0,
            "byteLength" : 48384,
            "byteOffset" : 1307760
        },
        {
            "buffer" : 0,
            "byteLength" : 48384,
            "byteOffset" : 1356144
        },
        {
            "buffer" : 0,
            "byteLength" : 11904,
            "byteOffset" : 1404528
        },
        {
            "buffer" : 0,
            "byteLength" : 48384,
            "byteOffset" : 1416432
        },
        {
            "buffer" : 0,
            "byteLength" : 48384,
            "byteOffset" : 1464816
        },
        {
            "buffer" : 0,
            "byteLength" : 11904,
            "byteOffset" : 1513200
        },
        {
            "buffer" : 0,
            "byteLength" : 48384,
            "byteOffset" : 1525104
        },
        {
            "buffer" : 0,
            "byteLength" : 48384,
            "byteOffset" : 1573488
        },
        {
            "buffer" : 0,
            "byteLength" : 11904,
            "byteOffset" : 1621872
        },
        {
            "buffer" : 0,
            "byteLength" : 11928,
            "byteOffset" : 1633776
        },
        {
            "buffer" : 0,
            "byteLength" : 11928,
            "byteOffset" : 1645704
        },
        {
            "buffer" : 0,
            "byteLength" : 11904,
            "byteOffset" : 1657632
        },
        {
            "buffer" : 0,
            "byteLength" : 48384,
            "byteOffset" : 1669536
        },
        {
            "buffer" : 0,
            "byteLength" : 48384,
            "byteOffset" : 1717920
        },
        {
            "buffer" : 0,
            "byteLength" : 11904,
            "byteOffset" : 1766304
        },
        {
            "buffer" : 0,
            "byteLength" : 48384,
            "byteOffset" : 1778208
        },
        {
            "buffer" : 0,
            "byteLength" : 48384,
            "byteOffset" : 1826592
        },
        {
            "buffer" : 0,
            "byteLength" : 11904,
            "byteOffset" : 1874976
        },
        {
            "buffer" : 0,
            "byteLength" : 48384,
            "byteOffset" : 1886880
        },
        {
            "buffer" : 0,
            "byteLength" : 48384,
            "byteOffset" : 1935264
        },
        {
            "buffer" : 0,
            "byteLength" : 11904,
            "byteOffset" : 1983648
        }
    ],
    "buffers" : [
        {
            "byteLength" : 1995552,
            "uri" : "data:application/octet-stream;base64,"
        }
    ]
}
