{
    "asset" : {
        "generator" : "Khronos glTF Blender I/O v3.2.40",
        "version" : "2.0"
    },
    "scene" : 0,
    "scenes" : [
        {
            "name" : "Scene",
            "nodes" : [
                7
            ]
        }
    ],
    "nodes" : [
        {
            "name" : "CarrierCV",
            "scale" : [
                1,
                1,
                0.4368862211704254
            ]
        },
        {
            "name" : "FlightDeckL1",
            "scale" : [
                1,
                1,
                0.4368862211704254
            ],
            "translation" : [
                5.007040023803711,
                0.5747400522232056,
                2.30421781539917
            ]
        },
        {
            "name" : "FlightDeckL2",
            "scale" : [
                1,
                1,
                0.4368862211704254
            ],
            "translation" : [
                5.007040023803711,
                -1.4371198415756226,
                2.30421781539917
            ]
        },
        {
            "name" : "FlightDeckR1",
            "scale" : [
                1,
                1,
                0.4368862211704254
            ],
            "translation" : [
                -5.007040023803711,
                0.5747400522232056,
                2.30421781539917
            ]
        },
        {
            "name" : "FlightDeckR2",
            "scale" : [
                1,
                1,
                0.4368862211704254
            ],
            "translation" : [
                -5.007040023803711,
                -1.4371198415756226,
                2.30421781539917
            ]
        },
        {
            "name" : "LeftCarrier",
            "scale" : [
                1,
                1,
                0.4368862211704254
            ],
            "translation" : [
                5.007040023803711,
                -0.4311899244785309,
                0.46208280324935913
            ]
        },
        {
            "name" : "RightCarrier",
            "scale" : [
                1,
                1,
                0.4368862211704254
            ],
            "translation" : [
                -5.007040023803711,
                -0.4311899244785309,
                0.46208280324935913
            ]
        },
        {
            "children" : [
                0,
                1,
                2,
                3,
                4,
                5,
                6
            ],
            "mesh" : 0,
            "name" : "SpaceCarrier",
            "scale" : [
                1,
                1,
                2.2889254093170166
            ],
            "translation" : [
                0,
                0.4311899244785309,
                -1.0576730966567993
            ]
        }
    ],
    "materials" : [
        {
            "doubleSided" : true,
            "name" : "CarrierC",
            "pbrMetallicRoughness" : {
                "baseColorFactor" : [
                    0.800000011920929,
                    0.800000011920929,
                    0.800000011920929,
                    1
                ],
                "metallicFactor" : 0,
                "roughnessFactor" : 0.5
            }
        },
        {
            "doubleSided" : true,
            "name" : "FlightDeck1",
            "pbrMetallicRoughness" : {
                "baseColorFactor" : [
                    0.800000011920929,
                    0.800000011920929,
                    0.800000011920929,
                    1
                ],
                "metallicFactor" : 0,
                "roughnessFactor" : 0.5
            }
        },
        {
            "doubleSided" : true,
            "name" : "CarrierRL",
            "pbrMetallicRoughness" : {
                "baseColorFactor" : [
                    0.800000011920929,
                    0.800000011920929,
                    0.800000011920929,
                    1
                ],
                "metallicFactor" : 0,
                "roughnessFactor" : 0.5
            }
        },
        {
            "doubleSided" : true,
            "name" : "FlightDeck2",
            "pbrMetallicRoughness" : {
                "baseColorFactor" : [
                    0.800000011920929,
                    0.800000011920929,
                    0.800000011920929,
                    1
                ],
                "metallicFactor" : 0,
                "roughnessFactor" : 0.5
            }
        }
    ],
    "meshes" : [
        {
            "name" : "SpaceCarrier",
            "primitives" : [
                {
                    "attributes" : {
                        "POSITION" : 0,
                        "NORMAL" : 1,
                        "TEXCOORD_0" : 2,
                        "TEXCOORD_1" : 3,
                        "TEXCOORD_2" : 4,
                        "TEXCOORD_3" : 5
                    },
                    "indices" : 6,
                    "material" : 0
                },
                {
                    "attributes" : {
                        "POSITION" : 7,
                        "NORMAL" : 8,
                        "TEXCOORD_0" : 9,
                        "TEXCOORD_1" : 10,
                        "TEXCOORD_2" : 11,
                        "TEXCOORD_3" : 12
                    },
                    "indices" : 13,
                    "material" : 1
                },
                {
                    "attributes" : {
                        "POSITION" : 14,
                        "NORMAL" : 15,
                        "TEXCOORD_0" : 16,
                        "TEXCOORD_1" : 17,
                        "TEXCOORD_2" : 18,
                        "TEXCOORD_3" : 19
                    },
                    "indices" : 20,
                    "material" : 2
                },
                {
                    "attributes" : {
                        "POSITION" : 21,
                        "NORMAL" : 22,
                        "TEXCOORD_0" : 23,
                        "TEXCOORD_1" : 24,
                        "TEXCOORD_2" : 25,
                        "TEXCOORD_3" : 26
                    },
                    "indices" : 27,
                    "material" : 3
                }
            ]
        }
    ],
    "accessors" : [
        {
            "bufferView" : 0,
            "componentType" : 5126,
            "count" : 3873,
            "max" : [
                3,
                2.596231698989868,
                5.130722999572754
            ],
            "min" : [
                -3,
                -1.6308526992797852,
                -3.956096649169922
            ],
            "type" : "VEC3"
        },
        {
            "bufferView" : 1,
            "componentType" : 5126,
            "count" : 3873,
            "type" : "VEC3"
        },
        {
            "bufferView" : 2,
            "componentType" : 5126,
            "count" : 3873,
            "type" : "VEC2"
        },
        {
            "bufferView" : 3,
            "componentType" : 5126,
            "count" : 3873,
            "type" : "VEC2"
        },
        {
            "bufferView" : 4,
            "componentType" : 5126,
            "count" : 3873,
            "type" : "VEC2"
        },
        {
            "bufferView" : 5,
            "componentType" : 5126,
            "count" : 3873,
            "type" : "VEC2"
        },
        {
            "bufferView" : 6,
            "componentType" : 5123,
            "count" : 6084,
            "type" : "SCALAR"
        },
        {
            "bufferView" : 7,
            "componentType" : 5126,
            "count" : 880,
            "max" : [
                6.578812599182129,
                1.1405783891677856,
                3.9719042778015137
            ],
            "min" : [
                -6.578808784484863,
                0.008905202150344849,
                1.2502110004425049
            ],
            "type" : "VEC3"
        },
        {
            "bufferView" : 8,
            "componentType" : 5126,
            "count" : 880,
            "type" : "VEC3"
        },
        {
            "bufferView" : 9,
            "componentType" : 5126,
            "count" : 880,
            "type" : "VEC2"
        },
        {
            "bufferView" : 10,
            "componentType" : 5126,
            "count" : 880,
            "type" : "VEC2"
        },
        {
            "bufferView" : 11,
            "componentType" : 5126,
            "count" : 880,
            "type" : "VEC2"
        },
        {
            "bufferView" : 12,
            "componentType" : 5126,
            "count" : 880,
            "type" : "VEC2"
        },
        {
            "bufferView" : 13,
            "componentType" : 5123,
            "count" : 1344,
            "type" : "SCALAR"
        },
        {
            "bufferView" : 14,
            "componentType" : 5126,
            "count" : 10344,
            "max" : [
                7.647673606872559,
                1.5806735754013062,
                4.534112930297852
            ],
            "min" : [
                -7.647669792175293,
                -2.4430534839630127,
                -3.6099472045898438
            ],
            "type" : "VEC3"
        },
        {
            "bufferView" : 15,
            "componentType" : 5126,
            "count" : 10344,
            "type" : "VEC3"
        },
        {
            "bufferView" : 16,
            "componentType" : 5126,
            "count" : 10344,
            "type" : "VEC2"
        },
        {
            "bufferView" : 17,
            "componentType" : 5126,
            "count" : 10344,
            "type" : "VEC2"
        },
        {
            "bufferView" : 18,
            "componentType" : 5126,
            "count" : 10344,
            "type" : "VEC2"
        },
        {
            "bufferView" : 19,
            "componentType" : 5126,
            "count" : 10344,
            "type" : "VEC2"
        },
        {
            "bufferView" : 20,
            "componentType" : 5123,
            "count" : 18048,
            "type" : "SCALAR"
        },
        {
            "bufferView" : 21,
            "componentType" : 5126,
            "count" : 873,
            "max" : [
                6.578808784484863,
                -0.871285080909729,
                3.971909761428833
            ],
            "min" : [
                -6.578804969787598,
                -2.002958297729492,
                1.2502171993255615
            ],
            "type" : "VEC3"
        },
        {
            "bufferView" : 22,
            "componentType" : 5126,
            "count" : 873,
            "type" : "VEC3"
        },
        {
            "bufferView" : 23,
            "componentType" : 5126,
            "count" : 873,
            "type" : "VEC2"
        },
        {
            "bufferView" : 24,
            "componentType" : 5126,
            "count" : 873,
            "type" : "VEC2"
        },
        {
            "bufferView" : 25,
            "componentType" : 5126,
            "count" : 873,
            "type" : "VEC2"
        },
        {
            "bufferView" : 26,
            "componentType" : 5126,
            "count" : 873,
            "type" : "VEC2"
        },
        {
            "bufferView" : 27,
            "componentType" : 5123,
            "count" : 1344,
            "type" : "SCALAR"
        }
    ],
    "bufferViews" : [
        {
            "buffer" : 0,
            "byteLength" : 46476,
            "byteOffset" : 0
        },
        {
            "buffer" : 0,
            "byteLength" : 46476,
            "byteOffset" : 46476
        },
        {
            "buffer" : 0,
            "byteLength" : 30984,
            "byteOffset" : 92952
        },
        {
            "buffer" : 0,
            "byteLength" : 30984,
            "byteOffset" : 123936
        },
        {
            "buffer" : 0,
            "byteLength" : 30984,
            "byteOffset" : 154920
        },
        {
            "buffer" : 0,
            "byteLength" : 30984,
            "byteOffset" : 185904
        },
        {
            "buffer" : 0,
            "byteLength" : 12168,
            "byteOffset" : 216888
        },
        {
            "buffer" : 0,
            "byteLength" : 10560,
            "byteOffset" : 229056
        },
        {
            "buffer" : 0,
            "byteLength" : 10560,
            "byteOffset" : 239616
        },
        {
            "buffer" : 0,
            "byteLength" : 7040,
            "byteOffset" : 250176
        },
        {
            "buffer" : 0,
            "byteLength" : 7040,
            "byteOffset" : 257216
        },
        {
            "buffer" : 0,
            "byteLength" : 7040,
            "byteOffset" : 264256
        },
        {
            "buffer" : 0,
            "byteLength" : 7040,
            "byteOffset" : 271296
        },
        {
            "buffer" : 0,
            "byteLength" : 2688,
            "byteOffset" : 278336
        },
        {
            "buffer" : 0,
            "byteLength" : 124128,
            "byteOffset" : 281024
        },
        {
            "buffer" : 0,
            "byteLength" : 124128,
            "byteOffset" : 405152
        },
        {
            "buffer" : 0,
            "byteLength" : 82752,
            "byteOffset" : 529280
        },
        {
            "buffer" : 0,
            "byteLength" : 82752,
            "byteOffset" : 612032
        },
        {
            "buffer" : 0,
            "byteLength" : 82752,
            "byteOffset" : 694784
        },
        {
            "buffer" : 0,
            "byteLength" : 82752,
            "byteOffset" : 777536
        },
        {
            "buffer" : 0,
            "byteLength" : 36096,
            "byteOffset" : 860288
        },
        {
            "buffer" : 0,
            "byteLength" : 10476,
            "byteOffset" : 896384
        },
        {
            "buffer" : 0,
            "byteLength" : 10476,
            "byteOffset" : 906860
        },
        {
            "buffer" : 0,
            "byteLength" : 6984,
            "byteOffset" : 917336
        },
        {
            "buffer" : 0,
            "byteLength" : 6984,
            "byteOffset" : 924320
        },
        {
            "buffer" : 0,
            "byteLength" : 6984,
            "byteOffset" : 931304
        },
        {
            "buffer" : 0,
            "byteLength" : 6984,
            "byteOffset" : 938288
        },
        {
            "buffer" : 0,
            "byteLength" : 2688,
            "byteOffset" : 945272
        }
    ],
    "buffers" : [
        {
            "byteLength" : 947960,
            "uri" : "data:application/octet-stream;base64,"
        }
    ]
}
